# xmcd
#
# Track frame offsets:
#       182
#       8937
#       17972
#       26792
#       37295
#       48187
#       61992
#       73557
#       86757
#       92900
#       106772
#       123727
#
# Disc length: 1807 seconds
#
# Revision: 3
# Processed by: cddbd v1.5.2PL0 Copyright (c) Steve Scherf et al.
# Submitted via: FreeDbEdit v0.1
#
DISCID=a4070d0c
DTITLE=Roger Miller - King of the Road, Volume 3 [CD3]
DYEAR=1995
DGENRE=Country
TTITLE0=My Uncle Used to Love Me but She Died
TTITLE1=Sunny Side of My Life
TTITLE2=Atta Boy Girl
TTITLE3=Kansas City Star
TTITLE4=Husbands and Wives
TTITLE5=Loving Her Was Easier (Than Anything I'll Ever Do Again)
TTITLE6=Mystery Train
TTITLE7=Tomorrow Night in Baltimore
TTITLE8=Boeing Boeing 707
TTITLE9=Gentle on My Mind
TTITLE10=Honey
TTITLE11=Walking in the Sunshine
EXTD=
EXTT0=
EXTT1=
EXTT2=
EXTT3=
EXTT4=
EXTT5=
EXTT6=
EXTT7=
EXTT8=
EXTT9=
EXTT10=
EXTT11=
PLAYORDER=
